<svg xmlns="http://www.w3.org/2000/svg" viewBox="0 0 200 200" fill="none">
  <defs>
    <linearGradient id="soxGrad" x1="0%" y1="0%" x2="0%" y2="100%">
      <stop offset="0%" style="stop-color:#6b2fa0;stop-opacity:1" />
      <stop offset="100%" style="stop-color:#45196e;stop-opacity:1" />
    </linearGradient>
  </defs>
  <!-- Shield shape -->
  <path d="M100 10 L180 45 L180 110 C180 150 145 180 100 195 C55 180 20 150 20 110 L20 45 Z" fill="url(#soxGrad)" stroke="#331052" stroke-width="2"/>
  <!-- Inner shield highlight -->
  <path d="M100 22 L170 52 L170 110 C170 145 140 172 100 185 C60 172 30 145 30 110 L30 52 Z" fill="none" stroke="rgba(255,255,255,0.2)" stroke-width="1"/>
  <!-- Document/audit icon -->
  <rect x="78" y="50" width="44" height="55" rx="3" fill="rgba(255,255,255,0.15)" stroke="rgba(255,255,255,0.6)" stroke-width="1.5"/>
  <line x1="88" y1="65" x2="112" y2="65" stroke="rgba(255,255,255,0.5)" stroke-width="1.5"/>
  <line x1="88" y1="75" x2="112" y2="75" stroke="rgba(255,255,255,0.5)" stroke-width="1.5"/>
  <line x1="88" y1="85" x2="105" y2="85" stroke="rgba(255,255,255,0.5)" stroke-width="1.5"/>
  <!-- Checkmark on document -->
  <polyline points="90,92 97,99 113,80" fill="none" stroke="white" stroke-width="2.5" stroke-linecap="round" stroke-linejoin="round"/>
  <!-- Text -->
  <text x="100" y="132" text-anchor="middle" font-family="Arial, Helvetica, sans-serif" font-size="24" font-weight="bold" fill="white" letter-spacing="3">SOX</text>
  <text x="100" y="150" text-anchor="middle" font-family="Arial, Helvetica, sans-serif" font-size="9" fill="rgba(255,255,255,0.8)">SARBANES-OXLEY</text>
  <text x="100" y="163" text-anchor="middle" font-family="Arial, Helvetica, sans-serif" font-size="9" fill="rgba(255,255,255,0.7)">COMPLIANT</text>
</svg>